<?xml version="1.0" encoding="UTF-8" standalone="no"?>
<!-- Created with Inkscape (http://www.inkscape.org/) -->

<svg
   xmlns:dc="http://purl.org/dc/elements/1.1/"
   xmlns:cc="http://creativecommons.org/ns#"
   xmlns:rdf="http://www.w3.org/1999/02/22-rdf-syntax-ns#"
   xmlns:svg="http://www.w3.org/2000/svg"
   xmlns="http://www.w3.org/2000/svg"
   xmlns:sodipodi="http://sodipodi.sourceforge.net/DTD/sodipodi-0.dtd"
   xmlns:inkscape="http://www.inkscape.org/namespaces/inkscape"
   width="84.783493mm"
   height="80.81813mm"
   viewBox="0 0 84.783493 80.81813"
   version="1.1"
   id="svg8"
   inkscape:version="0.92.1 r15371"
   sodipodi:docname="dampedOsz.svg">
  <defs
     id="defs2">
    <marker
       inkscape:stockid="Arrow1Mstart"
       orient="auto"
       refY="0"
       refX="0"
       id="Arrow1Mstart"
       style="overflow:visible"
       inkscape:isstock="true">
      <path
         id="path4493"
         d="M 0,0 5,-5 -12.5,0 5,5 Z"
         style="fill:#000000;fill-opacity:1;fill-rule:evenodd;stroke:#000000;stroke-width:1.00000003pt;stroke-opacity:1"
         transform="matrix(0.4,0,0,0.4,4,0)"
         inkscape:connector-curvature="0" />
    </marker>
    <marker
       inkscape:stockid="Arrow1Mend"
       orient="auto"
       refY="0"
       refX="0"
       id="Arrow1Mend"
       style="overflow:visible"
       inkscape:isstock="true">
      <path
         id="path4496"
         d="M 0,0 5,-5 -12.5,0 5,5 Z"
         style="fill:#000000;fill-opacity:1;fill-rule:evenodd;stroke:#000000;stroke-width:1.00000003pt;stroke-opacity:1"
         transform="matrix(-0.4,0,0,-0.4,-4,0)"
         inkscape:connector-curvature="0" />
    </marker>
  </defs>
  <sodipodi:namedview
     id="base"
     pagecolor="#ffffff"
     bordercolor="#666666"
     borderopacity="1.0"
     inkscape:pageopacity="0.0"
     inkscape:pageshadow="2"
     inkscape:zoom="1.4"
     inkscape:cx="55.039902"
     inkscape:cy="203.96357"
     inkscape:document-units="mm"
     inkscape:current-layer="layer1"
     showgrid="false"
     fit-margin-top="0"
     fit-margin-left="0"
     fit-margin-right="0"
     fit-margin-bottom="0" />
  <metadata
     id="metadata5">
    <rdf:RDF>
      <cc:Work
         rdf:about="">
        <dc:format>image/svg+xml</dc:format>
        <dc:type
           rdf:resource="http://purl.org/dc/dcmitype/StillImage" />
        <dc:title></dc:title>
      </cc:Work>
    </rdf:RDF>
  </metadata>
  <g
     inkscape:label="Layer 1"
     inkscape:groupmode="layer"
     id="layer1"
     transform="translate(-26.642054,-23.341848)">
    <path
       style="fill:none;fill-opacity:1;stroke:#000000;stroke-width:0.66500002;stroke-linecap:butt;stroke-linejoin:miter;stroke-miterlimit:4;stroke-dasharray:none;stroke-dashoffset:0;stroke-opacity:1;marker-start:url(#Arrow1Mstart);marker-end:url(#Arrow1Mend)"
       d="m 28.33057,24.652351 v 39.288621 l 78.30997,0"
       id="path4485"
       inkscape:connector-curvature="0"
       sodipodi:nodetypes="ccc" />
    <path
       style="fill:none;stroke:#000000;stroke-width:0.63411045;stroke-linecap:butt;stroke-linejoin:miter;stroke-miterlimit:4;stroke-dasharray:none;stroke-opacity:1"
       d="m 28.387829,33.546352 c 0.53757,0.279618 2.251165,22.955 2.152488,30.348082 -0.669629,50.169736 3.25522,59.864106 3.605174,0.127288 0.413104,-70.5165246 5.006406,-6.111921 5.145141,0.07375 1.716292,76.523048 4.533334,11.329579 4.981551,-0.04698 1.785473,-45.318568 3.858752,-25.058793 4.541922,-0.09648 1.462918,53.453478 3.060769,27.48058 4.283007,0.109945 1.408914,-31.551014 3.265824,-33.460495 4.494156,-0.0055 1.88974,51.469173 3.080988,14.870792 3.640656,0 1.477784,-39.265799 2.861517,-16.008345 3.409689,0.100226 1.604509,47.150077 3.352239,12.508193 3.594995,-0.284306 0.768375,-40.490913 3.496672,-10.350085 3.831488,0.09229 1.479972,46.158033 3.787848,0.9802 3.782601,-0.05888 -0.128637,-25.471518 3.034627,-25.807594 3.421055,-0.06682 0.626858,41.756373 3.960681,5.530897 3.934971,0.100227 -0.120606,-25.475225 3.043446,-23.115764 3.929945,-0.06682 1.603484,41.690516 3.8557,0.703297 3.866473,-0.06682 0.433734,-31.007043 2.827222,-15.085863 3.493858,0.03341"
       id="path4817"
       inkscape:connector-curvature="0"
       sodipodi:nodetypes="cssssssssssssssssc" />
  </g>
</svg>
